<?xml version="1.0" encoding="UTF-8" standalone="no"?>
<svg
   xmlns:dc="http://purl.org/dc/elements/1.1/"
   xmlns:cc="http://creativecommons.org/ns#"
   xmlns:rdf="http://www.w3.org/1999/02/22-rdf-syntax-ns#"
   xmlns:svg="http://www.w3.org/2000/svg"
   xmlns="http://www.w3.org/2000/svg"
   xmlns:sodipodi="http://sodipodi.sourceforge.net/DTD/sodipodi-0.dtd"
   xmlns:inkscape="http://www.inkscape.org/namespaces/inkscape"
   id="logo"
   viewBox="0 0 592 319.431"
   version="1.1"
   sodipodi:docname="citi_black.svg"
   inkscape:version="0.92.3 (2405546, 2018-03-11)"
   inkscape:export-filename="/home/jrmmendes/Work/CITi/Assets/citi_black.png"
   inkscape:export-xdpi="324.32001"
   inkscape:export-ydpi="324.32001">
  <metadata
     id="metadata27">
    <rdf:RDF>
      <cc:Work
         rdf:about="">
        <dc:format>image/svg+xml</dc:format>
        <dc:type
           rdf:resource="http://purl.org/dc/dcmitype/StillImage" />
      </cc:Work>
    </rdf:RDF>
  </metadata>
  <defs
     id="defs25" />
  <sodipodi:namedview
     pagecolor="#ffffff"
     bordercolor="#666666"
     borderopacity="1"
     objecttolerance="10"
     gridtolerance="10"
     guidetolerance="10"
     inkscape:pageopacity="0"
     inkscape:pageshadow="2"
     inkscape:window-width="1366"
     inkscape:window-height="715"
     id="namedview23"
     showgrid="false"
     inkscape:zoom="0.36327974"
     inkscape:cx="-398.12927"
     inkscape:cy="-25.309309"
     inkscape:window-x="0"
     inkscape:window-y="30"
     inkscape:window-maximized="1"
     inkscape:current-layer="logo" />
  <g
     id="g20"
     style="fill:#000000;fill-opacity:1">
    <g
       id="g12"
       style="fill:#000000;fill-opacity:1">
      <path
         fill-rule="evenodd"
         fill="#FFFFFF"
         d="M268.039,102.384c-0.637-0.039-1.101-0.092-1.564-0.092    c-12.925-0.004-25.848-0.017-38.773,0.007c-3.166,0.008-6.321,0.244-9.417,0.964c-6.79,1.581-11.885,5.269-14.611,11.855    c-0.798,1.93-1.586,3.866-2.303,5.827c-2.541,6.952-4.287,14.139-6.136,21.292c-5.899,22.811-11.809,45.618-17.682,68.435    c-4.313,16.75-8.617,33.501-12.851,50.271c-2.385,9.445-4.676,18.92-6.9,28.405c-0.99,4.221-1.77,8.495-1.537,12.886    c0.268,5.077,3.09,8.944,7.887,10.627c0.707,0.247,1.433,0.442,2.16,0.628c3.557,0.904,7.203,1.192,10.842,1.214    c11.529,0.075,23.059,0.027,34.589,0.017c1.373,0,1.396-0.017,1.744-1.336c0.958-3.623,1.903-7.251,2.84-10.879    c6.254-24.212,12.499-48.426,18.76-72.635c5.309-20.528,10.642-41.051,15.958-61.579c5.155-19.906,10.302-39.814,15.447-59.722    C267.012,106.56,267.501,104.543,268.039,102.384z M258.476,13.996c-4.034-0.019-8.021,0.348-11.954,1.268    c-8.112,1.896-14.9,6.092-20.845,11.819c-3.639,3.507-6.619,7.431-8.393,12.209c-1.645,4.431-2.164,8.948-0.954,13.564    c1.716,6.542,5.929,10.894,12.043,13.534c4.443,1.921,9.149,2.645,13.931,2.851c6.069,0.262,12.095-0.219,18.033-1.573    c11.577-2.643,20.751-8.727,26.911-19.013c3.706-6.194,4.652-12.737,1.766-19.522c-2.068-4.864-5.62-8.433-10.316-10.847    C272.35,15.021,265.518,13.99,258.476,13.996z"
         id="path2"
         style="fill:#000000;fill-opacity:1" />
      <path
         fill-rule="evenodd"
         fill="#FFFFFF"
         d="M377.625,5.653c0.513,0.108,1.021,0.257,1.542,0.32    c2.824,0.338,5.643,0.708,8.246,1.96c4.959,2.388,7.675,6.25,7.505,11.849c-0.057,1.804-0.294,3.643-0.747,5.388    c-5.396,20.838-10.849,41.66-16.282,62.486c-1.122,4.301-2.24,8.6-3.351,12.903c-0.129,0.497-0.2,1.008-0.337,1.729    c0.781,0,1.355,0,1.932,0c7.507,0,15.014,0.002,22.521,0c2.222-0.001,4.383,0.344,6.42,1.26c3.732,1.68,5.605,3.706,4.417,8.907    c-1.322,5.792-2.935,11.518-4.42,17.274c-0.708,2.747-1.397,5.5-2.133,8.241c-0.249,0.928-0.573,1.842-0.929,2.736    c-1.898,4.74-5.521,7.387-10.421,8.332c-1.617,0.313-3.301,0.389-4.952,0.396c-7.723,0.04-15.446,0.019-23.167,0.02    c-0.43,0-0.861,0.037-1.286-0.007c-0.922-0.096-1.361,0.338-1.574,1.202c-0.528,2.13-1.105,4.246-1.658,6.369    c-4.926,18.914-9.848,37.831-14.774,56.742c-6.024,23.109-12.036,46.223-18.099,69.321c-1.14,4.344-2.301,8.7-3.799,12.93    c-1.794,5.073-4.731,9.486-8.916,12.972c-4.529,3.772-9.734,5.754-15.657,5.756c-13.515,0-27.026,0-40.54,0    c-0.633,0-1.266,0-2.141,0c0.175-0.928,0.264-1.648,0.448-2.344c2.29-8.702,4.599-17.395,6.89-26.093    c6.123-23.246,12.239-46.499,18.36-69.75c5.696-21.643,11.392-43.286,17.083-64.931c0.161-0.614,0.273-1.24,0.453-2.081    c-0.724-0.049-1.333-0.125-1.94-0.125c-7.937-0.009-15.872-0.007-23.81-0.007c-0.574,0-1.15,0-1.939,0    c3.916-15.794,7.777-31.369,11.68-47.104c9.271,0,18.469,0,27.771,0c0.6-2.203,1.17-4.257,1.719-6.317    c5.42-20.333,10.837-40.667,16.252-61.002c0.742-2.793,1.533-5.577,2.191-8.389c0.322-1.367,0.991-2.455,1.934-3.441    c3.145-3.291,6.792-5.938,10.807-8.015c7.801-4.034,16.065-6.791,24.69-8.448c1.732-0.333,3.501-0.495,5.247-0.755    c0.309-0.045,0.602-0.188,0.901-0.284C375.049,5.653,376.337,5.653,377.625,5.653z"
         id="path4"
         style="fill:#000000;fill-opacity:1" />
      <path
         fill-rule="evenodd"
         fill="#FFFFFF"
         d="M5.327,231.863c0.231-1.687,0.587-3.366,0.67-5.059    c0.537-11.091,2.644-21.89,6.061-32.437c6.678-20.619,16.854-39.357,30.528-56.164c8.787-10.798,18.889-20.192,30.647-27.719    c9.081-5.813,18.89-9.835,29.547-11.665c5.405-0.927,10.86-1.379,16.333-0.965c8.033,0.606,15.708,2.716,23.056,5.997    c11.101,4.953,20.623,11.984,28.288,21.478c1.649,2.042,2.581,4.209,2.485,6.911c-0.229,6.481-0.147,12.974-0.473,19.448    c-0.243,4.861-0.751,9.74-2.411,14.373c-0.553,1.541-1.348,3.038-2.267,4.396c-1.694,2.503-4.487,3.41-7.361,2.463    c-4.092-1.348-7.602-3.719-10.726-6.62c-3.813-3.538-7.625-7.062-11.825-10.154c-5.322-3.92-11.3-5.862-17.848-5.936    c-6.111-0.07-11.734,1.686-16.764,5.208c-5.289,3.701-9.593,8.381-13.371,13.569c-6.056,8.315-10.273,17.541-13.43,27.282    c-2.545,7.852-4.667,15.814-6.017,23.965c-1.263,7.636-1.989,15.305-1.14,23.048c0.471,4.282,1.378,8.45,3.323,12.342    c3.742,7.487,11.475,11.743,19.826,10.963c3.988-0.372,7.777-1.481,11.48-2.933c7.841-3.068,15.371-6.807,22.863-10.636    c3.335-1.704,6.758-3.245,10.188-4.751c2.126-0.932,4.366-1.483,6.731-1.017c2.382,0.471,3.501,1.709,3.712,4.153    c0.2,2.331-0.215,4.596-0.832,6.823c-1.532,5.534-3.685,10.847-5.867,16.147c-3.284,7.976-6.726,15.88-10.684,23.557    c-0.71,1.375-1.677,2.42-2.943,3.305c-10.396,7.259-21.776,12.13-34.322,14.146c-5.302,0.85-10.655,1.251-16.019,0.953    c-7.127-0.4-14.192-1.271-20.987-3.632c-7.162-2.485-13.616-6.266-19.609-10.847c-5.984-4.573-11.527-9.633-16.131-15.62    c-5.643-7.344-9.117-15.723-11.342-24.648c-1.468-5.885-2.323-11.868-2.695-17.927c-0.097-1.582-0.442-3.148-0.674-4.721    C5.327,236.58,5.327,234.221,5.327,231.863z"
         id="path6"
         style="fill:#000000;fill-opacity:1" />
      <path
         fill-rule="evenodd"
         fill="#FFFFFF"
         d="M268.039,102.384c-0.538,2.159-1.027,4.175-1.547,6.184    c-5.145,19.908-10.292,39.816-15.447,59.722c-5.316,20.528-10.649,41.05-15.958,61.579c-6.262,24.209-12.506,48.423-18.76,72.635    c-0.938,3.628-1.882,7.256-2.84,10.879c-0.348,1.319-0.371,1.336-1.744,1.336c-11.53,0.011-23.06,0.059-34.589-0.017    c-3.64-0.021-7.285-0.31-10.842-1.214c-0.728-0.186-1.453-0.381-2.16-0.628c-4.797-1.683-7.619-5.55-7.887-10.627    c-0.233-4.391,0.547-8.665,1.537-12.886c2.224-9.485,4.515-18.96,6.9-28.405c4.233-16.77,8.538-33.52,12.851-50.271    c5.874-22.816,11.783-45.624,17.682-68.435c1.85-7.153,3.596-14.34,6.136-21.292c0.717-1.961,1.505-3.897,2.303-5.827    c2.726-6.586,7.821-10.274,14.611-11.855c3.096-0.72,6.252-0.956,9.417-0.964c12.925-0.024,25.848-0.012,38.773-0.007    C266.938,102.292,267.402,102.346,268.039,102.384z"
         id="path8"
         style="fill:#000000;fill-opacity:1" />
      <path
         fill-rule="evenodd"
         fill="#FFFFFF"
         d="M258.476,13.996c7.042-0.005,13.874,1.025,20.222,4.289    c4.696,2.414,8.248,5.983,10.316,10.847c2.887,6.785,1.94,13.329-1.766,19.522c-6.16,10.286-15.334,16.37-26.911,19.013    c-5.938,1.354-11.963,1.835-18.033,1.573c-4.782-0.206-9.487-0.929-13.931-2.851c-6.114-2.641-10.328-6.993-12.043-13.534    c-1.21-4.616-0.691-9.133,0.954-13.564c1.774-4.779,4.754-8.703,8.393-12.209c5.945-5.727,12.733-9.923,20.845-11.819    C250.455,14.344,254.442,13.977,258.476,13.996z"
         id="path10"
         style="fill:#000000;fill-opacity:1" />
    </g>
    <g
       id="g18"
       style="fill:#000000;fill-opacity:1">
      <path
         fill-rule="evenodd"
         fill="#8CBA4E"
         d="M500.64,319.188c-20.852,1.742-39.492-5.851-54.359-23.253    c-6.842-8.004-15.06-14.824-21.988-22.758c-8.916-10.217-18.567-10.6-29.389-3.813c-10.563,6.629-21.099,13.295-31.626,19.974    c-8.842,5.612-13.031,5.168-13.92-7.233c-1.131-15.704,3.906-26.122,17.429-34.454c22.032-13.574,42.891-29.134,65.908-41.062    c27.396-14.205,54.242-1.909,62.218,27.713c0.255,0.928,0.489,1.854,0.774,2.774c12.033,38.955,26.849,45.632,63.827,28.75    c1.309-0.596,2.536-1.414,3.886-1.864c6.441-2.157,13.176-9.735,19.593-2.967c6.537,6.89,4.53,16.32,1.056,24.478    c-3.512,8.237-10.123,13.997-18.095,17.821C545.891,312.925,525.159,320.145,500.64,319.188z"
         id="path14"
         style="fill:#000000;fill-opacity:1" />
      <path
         fill-rule="evenodd"
         fill="#8CBA4E"
         d="M466.838,142.582c-11.445-1.208-23.774-2.318-28.565-16.29    c-4.781-13.947,2.716-22.88,13.45-29.972c19.423-12.824,40.622-21.65,63.605-25.074c21.487-3.208,27.191,5.301,19.556,25.36    C522.891,128.126,506.146,138.809,466.838,142.582z"
         id="path16"
         style="fill:#000000;fill-opacity:1" />
    </g>
  </g>
</svg>
